<svg width="732" height="741" viewBox="0 0 732 741" fill="none" xmlns="http://www.w3.org/2000/svg">
<path d="M702.583 12.9062H324.278V262.937H702.583V12.9062Z" fill="#EBEBEB"/>
<path d="M711.8 0.663422H315.268V12.9062H711.8V0.663422Z" fill="#A6A6A6"/>
<path d="M402.24 47.1584H342.505V117.933H402.24V47.1584Z" fill="white"/>
<path d="M374.47 51.9214C374.47 52.3465 374.344 52.7621 374.108 53.1156C373.872 53.469 373.536 53.7445 373.143 53.9072C372.751 54.0699 372.319 54.1124 371.902 54.0295C371.485 53.9466 371.102 53.7418 370.801 53.4413C370.5 53.1407 370.296 52.7577 370.213 52.3408C370.13 51.9238 370.172 51.4916 370.335 51.0989C370.498 50.7062 370.773 50.3705 371.127 50.1343C371.48 49.8981 371.896 49.7721 372.321 49.7721C372.891 49.7721 373.438 49.9985 373.841 50.4016C374.244 50.8047 374.47 51.3514 374.47 51.9214Z" fill="#455A64"/>
<path d="M353.836 61.3442C359.889 60.88 365.873 60.8456 371.96 60.7768C378.047 60.708 383.996 60.7768 390.083 61.3442C384.048 61.8085 378.047 61.8429 371.96 61.8945C365.873 61.9461 359.923 61.8085 353.836 61.3442Z" fill="#EBEBEB"/>
<path d="M353.836 66.9326C357.106 66.5465 360.396 66.357 363.689 66.3652C366.982 66.3397 370.273 66.5292 373.542 66.9326C370.273 67.3272 366.982 67.5167 363.689 67.5C360.396 67.5081 357.106 67.3187 353.836 66.9326V66.9326Z" fill="#EBEBEB"/>
<path d="M353.836 72.5553C358.032 72.1254 362.227 72.0223 366.423 72.0051C370.619 71.9879 374.814 72.1254 379.01 72.5553C374.827 72.9588 370.626 73.1482 366.423 73.1228C362.221 73.1482 358.019 72.9588 353.836 72.5553V72.5553Z" fill="#EBEBEB"/>
<path d="M353.836 78.1265C359.098 77.6794 364.342 77.5763 369.587 77.5591C374.831 77.5419 380.093 77.6794 385.337 78.1265C380.179 78.5563 374.831 78.6595 369.587 78.6767C364.342 78.6939 359.132 78.5563 353.836 78.1265Z" fill="#EBEBEB"/>
<path d="M353.836 83.7148C358.41 83.2678 362.967 83.1646 367.592 83.1474C372.218 83.1302 376.706 83.2678 381.348 83.7148C376.774 84.1447 372.218 84.2479 367.592 84.2651C362.967 84.2823 358.445 84.1447 353.836 83.7148Z" fill="#EBEBEB"/>
<path d="M353.836 89.3031C359.683 88.8389 365.512 88.8045 371.358 88.7357C377.204 88.6669 383.033 88.8389 388.862 89.3031C383.033 89.7674 377.187 89.8018 371.358 89.8706C365.529 89.9394 359.717 89.7502 353.836 89.3031Z" fill="#EBEBEB"/>
<path d="M353.836 94.9087C357.595 94.52 361.372 94.3363 365.151 94.3585C368.929 94.3359 372.706 94.5196 376.465 94.9087C372.707 95.3121 368.93 95.5015 365.151 95.4761C361.371 95.5011 357.594 95.3117 353.836 94.9087V94.9087Z" fill="#EBEBEB"/>
<path d="M353.836 100.497C359.889 100.033 365.873 99.9984 371.96 99.9296C378.047 99.8608 383.996 99.9296 390.083 100.497C384.048 100.961 378.047 100.996 371.96 101.047C365.873 101.099 359.923 100.961 353.836 100.497Z" fill="#EBEBEB"/>
<path d="M353.836 106.085C359.889 105.621 365.873 105.587 371.96 105.518C378.047 105.449 383.996 105.621 390.083 106.085C384.048 106.55 378.047 106.584 371.96 106.653C365.873 106.722 359.923 106.55 353.836 106.085Z" fill="#EBEBEB"/>
<path d="M684.924 107.977H638.154V163.396H684.924V107.977Z" fill="white"/>
<path d="M661.539 114.408C662.422 114.408 663.138 113.692 663.138 112.809C663.138 111.925 662.422 111.209 661.539 111.209C660.656 111.209 659.94 111.925 659.94 112.809C659.94 113.692 660.656 114.408 661.539 114.408Z" fill="#455A64"/>
<path d="M645.651 123.074C648.902 122.615 652.201 122.615 655.452 123.074C652.203 123.556 648.9 123.556 645.651 123.074Z" fill="#EBEBEB"/>
<path d="M645.651 127.029C649.867 126.547 654.125 126.547 658.341 127.029C656.236 127.28 654.116 127.395 651.996 127.373C649.876 127.387 647.757 127.272 645.651 127.029V127.029Z" fill="#EBEBEB"/>
<path d="M645.651 131.018C649.557 130.537 653.507 130.537 657.412 131.018C653.505 131.477 649.558 131.477 645.651 131.018V131.018Z" fill="#EBEBEB"/>
<path d="M645.651 134.921C649.558 134.463 653.505 134.463 657.412 134.921C653.507 135.402 649.557 135.402 645.651 134.921V134.921Z" fill="#EBEBEB"/>
<path d="M645.651 138.876C647.359 138.631 649.084 138.516 650.81 138.532C652.535 138.507 654.261 138.622 655.968 138.876C652.58 139.357 649.142 139.357 645.754 138.876H645.651Z" fill="#EBEBEB"/>
<path d="M645.651 142.831C649.994 142.349 654.376 142.349 658.719 142.831C654.375 143.289 649.995 143.289 645.651 142.831V142.831Z" fill="#EBEBEB"/>
<path d="M645.651 146.786C649.229 146.304 652.855 146.304 656.432 146.786C652.853 147.244 649.23 147.244 645.651 146.786Z" fill="#EBEBEB"/>
<path d="M645.651 150.723C650.15 150.265 654.684 150.265 659.183 150.723C654.685 151.204 650.149 151.204 645.651 150.723V150.723Z" fill="#EBEBEB"/>
<path d="M645.651 154.678C647.895 154.435 650.151 154.32 652.409 154.334C654.672 154.312 656.934 154.426 659.183 154.678C654.685 155.159 650.149 155.159 645.651 154.678V154.678Z" fill="#EBEBEB"/>
<path d="M664.961 123.074C669.236 122.615 673.548 122.615 677.823 123.074C673.549 123.555 669.235 123.555 664.961 123.074V123.074Z" fill="#EBEBEB"/>
<path d="M664.961 127.029C667.76 126.547 670.621 126.547 673.421 127.029C672.025 127.28 670.609 127.395 669.191 127.373C667.773 127.386 666.358 127.271 664.961 127.029V127.029Z" fill="#EBEBEB"/>
<path d="M664.961 131.018C668.959 130.541 672.999 130.541 676.997 131.018C672.998 131.472 668.96 131.472 664.961 131.018V131.018Z" fill="#EBEBEB"/>
<path d="M664.961 134.921C668.868 134.463 672.815 134.463 676.722 134.921C672.817 135.402 668.867 135.402 664.961 134.921V134.921Z" fill="#EBEBEB"/>
<path d="M664.961 138.876C667.096 138.633 669.243 138.518 671.392 138.532C673.541 138.51 675.689 138.624 677.823 138.876C673.549 139.358 669.235 139.358 664.961 138.876V138.876Z" fill="#EBEBEB"/>
<path d="M664.961 142.831C668.354 142.349 671.799 142.349 675.192 142.831C671.797 143.289 668.356 143.289 664.961 142.831V142.831Z" fill="#EBEBEB"/>
<path d="M664.961 146.786C668.959 146.308 672.999 146.308 676.997 146.786C672.998 147.24 668.96 147.24 664.961 146.786V146.786Z" fill="#EBEBEB"/>
<path d="M664.961 150.723C668.062 150.265 671.214 150.265 674.315 150.723C672.769 150.972 671.204 151.093 669.638 151.084C668.072 151.092 666.507 150.971 664.961 150.723Z" fill="#EBEBEB"/>
<path d="M664.961 154.678C666.444 154.436 667.946 154.32 669.449 154.334C670.952 154.312 672.454 154.427 673.937 154.678C670.964 155.16 667.933 155.16 664.961 154.678V154.678Z" fill="#EBEBEB"/>
<path d="M427.345 90.7819H391.407V126.719H427.345V90.7819Z" fill="#C7C7C7"/>
<path d="M411.525 94.4272C411.525 94.8523 411.399 95.2679 411.163 95.6213C410.927 95.9748 410.591 96.2503 410.198 96.413C409.806 96.5757 409.374 96.6182 408.957 96.5353C408.54 96.4524 408.157 96.2476 407.856 95.9471C407.555 95.6465 407.351 95.2635 407.268 94.8465C407.185 94.4296 407.227 93.9974 407.39 93.6047C407.553 93.212 407.828 92.8763 408.182 92.6401C408.535 92.4039 408.951 92.2779 409.376 92.2779C409.658 92.2779 409.938 92.3334 410.198 92.4415C410.459 92.5495 410.696 92.7078 410.896 92.9074C411.095 93.107 411.254 93.3439 411.362 93.6047C411.47 93.8655 411.525 94.145 411.525 94.4272V94.4272Z" fill="#455A64"/>
<path d="M702.583 12.9062H324.278V28.8115H702.583V12.9062Z" fill="#DBDBDB"/>
<path d="M444.178 48.5168L504.842 48.3965L565.506 48.5168L504.842 48.6544L444.178 48.5168Z" fill="#C7C7C7"/>
<path d="M444.178 53.469L504.842 53.3486L565.506 53.469L504.842 53.6066L444.178 53.469Z" fill="#C7C7C7"/>
<path d="M444.178 58.4211L504.842 58.2835L565.506 58.4211L504.842 58.5415L444.178 58.4211Z" fill="#C7C7C7"/>
<path d="M444.178 63.3732L504.842 63.2357L565.506 63.3732L504.842 63.4936L444.178 63.3732Z" fill="#C7C7C7"/>
<path d="M444.178 68.3082L504.842 68.1878L565.506 68.3082L504.842 68.4458L444.178 68.3082Z" fill="#C7C7C7"/>
<path d="M444.178 73.2603L504.842 73.1227L565.506 73.2603L504.842 73.3979L444.178 73.2603Z" fill="#C7C7C7"/>
<path d="M444.178 78.2124L504.842 78.0749L565.506 78.2124L504.842 78.3328L444.178 78.2124Z" fill="#C7C7C7"/>
<path d="M444.178 83.1474L504.842 83.027L565.506 83.1474L504.842 83.2849L444.178 83.1474Z" fill="#C7C7C7"/>
<path d="M444.178 88.0995L504.842 87.9792L565.506 88.0995L504.842 88.2371L444.178 88.0995Z" fill="#C7C7C7"/>
<path d="M444.178 93.0516L504.842 92.9141L565.506 93.0516L504.842 93.1892L444.178 93.0516Z" fill="#C7C7C7"/>
<path d="M444.178 98.0038L504.842 97.8662L565.506 98.0038L504.842 98.1241L444.178 98.0038Z" fill="#C7C7C7"/>
<path d="M444.178 102.939L504.842 102.818L565.506 102.939L504.842 103.076L444.178 102.939Z" fill="#C7C7C7"/>
<path d="M444.178 107.891L504.842 107.753L565.506 107.891L504.842 108.028L444.178 107.891Z" fill="#C7C7C7"/>
<path d="M444.178 112.843L504.842 112.705L565.506 112.843L504.842 112.963L444.178 112.843Z" fill="#C7C7C7"/>
<path d="M444.178 117.795L504.842 117.658L565.506 117.795L504.842 117.915L444.178 117.795Z" fill="#C7C7C7"/>
<path d="M466.205 83.1474H457.006V123.555H466.205V83.1474Z" fill="#C7C7C7"/>
<path d="M483.262 66.0729H474.063V123.555H483.262V66.0729Z" fill="white"/>
<path d="M500.337 58.3008H491.138V123.555H500.337V58.3008Z" fill="#C7C7C7"/>
<path d="M517.411 68.4286H508.212V123.555H517.411V68.4286Z" fill="white"/>
<path d="M534.469 71.4377H525.27V123.555H534.469V71.4377Z" fill="#C7C7C7"/>
<path d="M551.543 100.961H542.344V123.555H551.543V100.961Z" fill="white"/>
<path d="M447.463 45.0435L447.669 64.6801L447.807 84.2994C447.91 97.3848 447.927 110.47 447.944 123.555L447.463 123.074H476.969H506.476L535.999 123.229L565.506 123.521L535.999 123.813L506.476 123.968H476.969H446.981V123.487C446.981 110.407 447.027 97.3217 447.119 84.2307L447.256 64.6113L447.463 45.0435Z" fill="#C7C7C7"/>
<path d="M466.205 127.699H457.006V128.525H466.205V127.699Z" fill="#C7C7C7"/>
<path d="M483.262 127.699H474.063V128.525H483.262V127.699Z" fill="#C7C7C7"/>
<path d="M500.337 127.699H491.138V128.525H500.337V127.699Z" fill="#C7C7C7"/>
<path d="M517.411 127.699H508.212V128.525H517.411V127.699Z" fill="#C7C7C7"/>
<path d="M534.469 127.699H525.27V128.525H534.469V127.699Z" fill="#C7C7C7"/>
<path d="M551.543 127.699H542.344V128.525H551.543V127.699Z" fill="#C7C7C7"/>
<path d="M394.846 231.488H358.307V234.634H394.846V231.488Z" fill="#C7C7C7"/>
<path d="M407.656 238.056H358.307V241.203H407.656V238.056Z" fill="#C7C7C7"/>
<path d="M384.495 244.607H358.307V247.754H384.495V244.607Z" fill="#C7C7C7"/>
<path d="M350.157 231.488H342.539V239.105H350.157V231.488Z" fill="#C7C7C7"/>
<path d="M630.743 48.3793H594.204V51.5259H630.743V48.3793Z" fill="#C7C7C7"/>
<path d="M643.553 54.9305H594.204V58.0772H643.553V54.9305Z" fill="#C7C7C7"/>
<path d="M620.392 61.4818H594.204V64.6285H620.392V61.4818Z" fill="#C7C7C7"/>
<path d="M586.054 48.3793H578.436V55.9966H586.054V48.3793Z" fill="#C7C7C7"/>
<path d="M637.621 73.7418H594.204V76.8884H637.621V73.7418Z" fill="#C7C7C7"/>
<path d="M628.559 80.293H594.204V83.4397H628.559V80.293Z" fill="#C7C7C7"/>
<path d="M643.553 86.8443H594.204V89.991H643.553V86.8443Z" fill="#C7C7C7"/>
<path d="M586.054 73.7418H578.436V81.3591H586.054V73.7418Z" fill="white"/>
<path d="M506.235 151.033H342.505V222.65H506.235V151.033Z" fill="#DBDBDB"/>
<path d="M497.534 160.06H351.205V166.25H497.534V160.06Z" fill="white"/>
<path d="M426.021 160.06H351.205V166.25H426.021V160.06Z" fill="#C7C7C7"/>
<path d="M497.534 171.907H351.205V178.098H497.534V171.907Z" fill="white"/>
<path d="M485.429 171.907H351.205V178.098H485.429V171.907Z" fill="#C7C7C7"/>
<path d="M497.534 183.738H351.205V189.928H497.534V183.738Z" fill="white"/>
<path d="M394.502 183.738H351.205V189.928H394.502V183.738Z" fill="#C7C7C7"/>
<path d="M497.534 195.585H351.205V201.775H497.534V195.585Z" fill="white"/>
<path d="M466.205 195.585H351.205V201.775H466.205V195.585Z" fill="#C7C7C7"/>
<path d="M497.534 207.415H351.205V213.605H497.534V207.415Z" fill="white"/>
<path d="M435.753 207.415H351.205V213.605H435.753V207.415Z" fill="#C7C7C7"/>
<path d="M612.345 190.048C611.832 196.899 609.642 203.519 605.965 209.324L595.236 203.133C597.805 199.201 599.407 194.718 599.913 190.048H612.345Z" fill="#A6A6A6"/>
<path d="M612.465 186.833C612.465 187.28 612.465 187.727 612.465 188.174H600.085C600.085 187.727 600.085 187.28 600.085 186.833C600.074 181.901 598.842 177.05 596.499 172.711C594.155 168.372 590.773 164.682 586.655 161.969L592.846 151.239C598.848 155.041 603.793 160.296 607.223 166.518C610.653 172.74 612.456 179.728 612.465 186.833Z" fill="#A6A6A6"/>
<path d="M591.246 150.19L585.056 160.937C580.832 158.504 576.07 157.157 571.197 157.017V144.636C578.242 144.765 585.139 146.676 591.246 150.19V150.19Z" fill="#A6A6A6"/>
<path d="M569.323 144.636V157.017C564.288 157.169 559.374 158.596 555.041 161.164C550.707 163.732 547.096 167.358 544.545 171.701L533.815 165.528C537.449 159.296 542.622 154.102 548.84 150.444C555.057 146.785 562.11 144.786 569.323 144.636Z" fill="#C7C7C7"/>
<path d="M543.651 173.352C541.605 177.365 540.511 181.795 540.453 186.3H528.055C528.117 179.611 529.786 173.036 532.921 167.127L543.651 173.352Z" fill="#A6A6A6"/>
<path d="M553.641 211.593L547.434 222.34C541.673 218.647 536.9 213.605 533.526 207.652C530.153 201.699 528.281 195.013 528.072 188.174H540.47C540.67 192.838 541.967 197.389 544.255 201.458C546.544 205.528 549.759 209 553.641 211.593V211.593Z" fill="#A6A6A6"/>
<path d="M604.882 210.888C598.844 219.617 589.734 225.744 579.373 228.046C569.012 230.347 558.164 228.654 548.999 223.303L555.189 212.591C561.521 216.281 568.991 217.513 576.173 216.051C583.355 214.59 589.749 210.536 594.135 204.664L604.882 210.888Z" fill="#DBDBDB"/>
<path d="M592.312 188.174C592.313 192.013 591.184 195.768 589.065 198.969C586.946 202.171 583.931 204.678 580.396 206.177L572.762 188.174H592.312Z" fill="#C7C7C7"/>
<path d="M570.251 186.833L577.903 204.836C577.301 205.076 576.7 205.3 576.184 205.489C572.495 206.629 568.551 206.65 564.85 205.55C561.15 204.449 557.858 202.277 555.391 199.307C552.924 196.337 551.393 192.703 550.99 188.863C550.588 185.023 551.332 181.15 553.129 177.733C554.927 174.316 557.696 171.508 561.088 169.665C564.48 167.821 568.343 167.023 572.188 167.373C576.033 167.723 579.688 169.205 582.691 171.631C585.695 174.057 587.912 177.318 589.063 181.004C589.637 182.888 589.932 184.846 589.94 186.815L570.251 186.833Z" fill="#C7C7C7"/>
<path d="M570.251 186.833L577.903 204.836C577.301 205.076 576.7 205.3 576.184 205.489C573.253 206.412 570.146 206.631 567.114 206.129C564.083 205.628 561.212 204.419 558.734 202.602C556.257 200.784 554.242 198.408 552.853 195.667C551.465 192.926 550.741 189.897 550.741 186.824C550.741 183.751 551.465 180.722 552.853 177.981C554.242 175.24 556.257 172.864 558.734 171.047C561.212 169.229 564.083 168.02 567.114 167.519C570.146 167.017 573.253 167.236 576.184 168.159C579.198 169.121 581.939 170.788 584.179 173.022C586.419 175.256 588.093 177.992 589.063 181.004C589.636 182.888 589.932 184.846 589.94 186.815L570.251 186.833Z" fill="#DBDBDB"/>
<path d="M570.269 186.833L557.527 201.655C555.041 199.518 553.132 196.791 551.975 193.724C550.819 190.657 550.452 187.349 550.909 184.103C551.365 180.857 552.631 177.778 554.589 175.149C556.546 172.52 559.134 170.425 562.113 169.058C565.092 167.691 568.367 167.094 571.637 167.324C574.907 167.553 578.066 168.601 580.825 170.371C583.584 172.141 585.854 174.576 587.426 177.453C588.997 180.329 589.82 183.555 589.819 186.833H570.269Z" fill="#A6A6A6"/>
<path d="M626.272 233.465H599.018L565.248 199.712L565.746 199.213L599.294 232.76H626.272V233.465Z" fill="#263238"/>
<path d="M567.397 197.562H563.597V201.362H567.397V197.562Z" fill="#263238"/>
<path d="M626.272 207.346H595.545L580.964 192.765L581.462 192.266L595.837 206.658H626.272V207.346Z" fill="#263238"/>
<path d="M583.113 190.616H579.313V194.416H583.113V190.616Z" fill="#263238"/>
<path d="M626.272 181.502H579.829V182.207H626.272V181.502Z" fill="#263238"/>
<path d="M581.222 179.955H577.422V183.755H581.222V179.955Z" fill="#263238"/>
<path d="M674.762 178.046H638.223V181.193H674.762V178.046Z" fill="#DBDBDB"/>
<path d="M687.572 184.597H638.223V187.744H687.572V184.597Z" fill="#DBDBDB"/>
<path d="M664.411 191.149H638.223V194.295H664.411V191.149Z" fill="#DBDBDB"/>
<path d="M630.073 178.046H622.455V185.663H630.073V178.046Z" fill="#C7C7C7"/>
<path d="M681.64 203.409H638.223V206.555H681.64V203.409Z" fill="#DBDBDB"/>
<path d="M672.578 209.96H638.223V213.106H672.578V209.96Z" fill="#DBDBDB"/>
<path d="M687.572 216.511H638.223V219.658H687.572V216.511Z" fill="#DBDBDB"/>
<path d="M630.073 203.409H622.455V211.026H630.073V203.409Z" fill="#A6A6A6"/>
<path d="M681.64 228.771H638.223V231.918H681.64V228.771Z" fill="#DBDBDB"/>
<path d="M672.578 235.322H638.223V238.469H672.578V235.322Z" fill="#DBDBDB"/>
<path d="M687.572 241.874H638.223V245.02H687.572V241.874Z" fill="#DBDBDB"/>
<path d="M630.073 228.771H622.455V236.388H630.073V228.771Z" fill="#C7C7C7"/>
<path d="M241.399 740.99C343.106 740.99 425.556 727.849 425.556 711.638C425.556 695.428 343.106 682.287 241.399 682.287C139.692 682.287 57.2415 695.428 57.2415 711.638C57.2415 727.849 139.692 740.99 241.399 740.99Z" fill="#EBEBEB"/>
<path d="M0.119995 663.441L91.5541 663.028L183.005 662.874L365.89 662.598L548.775 662.874L640.226 663.028L731.66 663.441L640.226 663.871L548.775 664.026L365.89 664.301L183.005 664.026L91.5541 663.871L0.119995 663.441Z" fill="#263238"/>
<path d="M313.669 478.028L309.319 504.096L279.847 663.183H275.101L296.526 504.096L299.69 478.028H313.669Z" fill="#DBDBDB"/>
<path d="M299.69 478.028H313.669L309.319 504.096H296.526L299.69 478.028Z" fill="#C7C7C7"/>
<path d="M406.178 663.183H401.432L371.96 504.096L367.627 478.028H381.589L384.753 504.096L406.178 663.183Z" fill="#DBDBDB"/>
<path d="M381.589 478.028L384.753 504.096H371.96L367.627 478.028H381.589Z" fill="#C7C7C7"/>
<path d="M494.542 663.183H489.796L460.324 504.096L455.974 478.028H469.954L473.117 504.096L494.542 663.183Z" fill="#DBDBDB"/>
<path d="M473.117 504.096H460.324L455.974 478.028H469.954L473.117 504.096Z" fill="#C7C7C7"/>
<path d="M487.011 490.271H271.146V472.767L351.945 467.522L379.113 310.877H478.774L487.011 490.271Z" fill="#DBDBDB"/>
<path d="M487.011 490.271H475.232L467.563 310.877H478.775L487.011 490.271Z" fill="#C7C7C7"/>
<path d="M651.377 399.069H507.714V663.011H651.377V399.069Z" fill="#455A64"/>
<path d="M651.377 399.069H507.714V416.281H651.377V399.069Z" fill="#263238"/>
<path d="M713.055 385.193H131.18V399.087H713.055V385.193Z" fill="#455A64"/>
<path d="M161.821 399.069L161.357 416.281L155.304 663.011H144.334V399.069H161.821Z" fill="#455A64"/>
<path d="M144.334 399.069H161.821L161.357 416.281H144.334V399.069Z" fill="#263238"/>
<path d="M700.056 399.069H651.377V663.011H700.056V399.069Z" fill="#37474F"/>
<path d="M700.056 399.069H651.377V416.281H700.056V399.069Z" fill="#263238"/>
<path d="M654.317 363.648H545.147V385.193H654.317V363.648Z" fill="#4389F3"/>
<path d="M562.6 363.648H551.939V385.193H562.6V363.648Z" fill="#37474F"/>
<path d="M571.025 363.648H566.572V385.193H571.025V363.648Z" fill="#37474F"/>
<path d="M641.473 363.648H630.812V385.193H641.473V363.648Z" fill="#37474F"/>
<path d="M614.528 347.571H538.802V363.648H614.528V347.571Z" fill="#455A64"/>
<path d="M647.199 347.571H614.528V363.648H647.199V347.571Z" fill="#455A64"/>
<path d="M614.528 349.239H538.802V361.98H614.528V349.239Z" fill="white"/>
<path d="M543.703 351.887C549.618 351.732 555.515 351.611 561.413 351.56L579.124 351.457H596.835C602.733 351.457 608.63 351.629 614.528 351.801C608.63 351.955 602.733 352.076 596.835 352.127L579.124 352.23L561.413 352.127C555.521 352.104 549.618 352.024 543.703 351.887Z" fill="#DBDBDB"/>
<path d="M543.703 354.363C549.618 354.208 555.515 354.087 561.413 354.036L579.124 353.933L596.835 354.036C602.733 354.036 608.63 354.208 614.528 354.363C608.63 354.517 602.733 354.638 596.835 354.689L579.124 354.792L561.413 354.689C555.515 354.638 549.618 354.517 543.703 354.363Z" fill="#DBDBDB"/>
<path d="M543.703 356.856C549.618 356.707 555.521 356.598 561.413 356.529L579.124 356.426L596.835 356.529C602.733 356.529 608.63 356.701 614.528 356.856C608.63 357.028 602.733 357.131 596.835 357.2H579.124L561.413 357.097C555.515 357.131 549.618 357.045 543.703 356.856Z" fill="#DBDBDB"/>
<path d="M543.703 359.366C549.618 359.194 555.521 359.085 561.413 359.04L579.124 358.936L596.835 359.022C602.733 359.022 608.63 359.194 614.528 359.366C608.63 359.521 602.733 359.641 596.835 359.693L579.124 359.796L561.413 359.693C555.521 359.624 549.618 359.515 543.703 359.366Z" fill="#DBDBDB"/>
<path d="M631.568 329.963H555.791V347.571H631.568V329.963Z" fill="#37474F"/>
<path d="M623.538 329.963H616.471V347.571H623.538V329.963Z" fill="#4389F3"/>
<path d="M611.829 329.963H609.095V347.571H611.829V329.963Z" fill="#4389F3"/>
<path d="M83.3089 366.726C83.3089 366.726 41.6629 360.897 51.3952 310.619C51.3952 310.619 97.9246 321.073 83.3089 366.726Z" fill="#4389F3"/>
<path opacity="0.1" d="M83.3089 366.726C83.3089 366.726 41.6629 360.897 51.3952 310.619C51.3952 310.619 97.9246 321.073 83.3089 366.726Z" fill="black"/>
<path d="M81.2112 356.237C80.3858 353.692 79.4917 351.199 78.374 348.74C78.374 348.413 78.2881 348.104 78.2537 347.794C78.2537 347.089 78.1333 346.401 78.0817 345.714C77.9785 344.218 77.8754 342.704 77.7894 341.208C77.6174 338.199 77.4111 335.207 77.3767 332.198C77.3767 332.026 77.1188 332.044 77.1188 332.198C77.1188 335.207 77.1188 338.217 77.1188 341.226C77.1188 342.722 77.2564 344.235 77.3595 345.731C77.3595 346.057 77.3595 346.401 77.3595 346.728C75.0293 341.718 72.2313 336.94 69.0028 332.456C67.5905 330.449 66.0693 328.52 64.4462 326.679C62.7267 324.77 61.0072 322.965 59.2877 321.09C59.1845 320.97 58.9954 321.09 59.1157 321.262C62.1005 324.579 64.7876 328.152 67.1458 331.94C68.401 333.849 69.6046 335.826 70.7395 337.821L70.3612 337.666L68.8653 337.065L65.4263 335.775C63.2081 334.95 60.9556 334.141 58.7375 333.282C58.5999 333.282 58.5139 333.471 58.6343 333.522C60.8524 334.399 63.0534 335.345 65.2371 336.291L68.4698 337.666C69.0028 337.907 69.553 338.131 70.0861 338.337C70.4339 338.517 70.8039 338.65 71.1866 338.732C72.0291 340.246 72.906 341.759 73.6282 343.289C75.586 347.195 77.3085 351.214 78.7867 355.326L79.0962 356.202C77.9996 355.535 76.8493 354.96 75.6572 354.483C74.2301 353.812 72.7857 353.176 71.3413 352.523C68.4354 351.182 65.5294 349.806 62.7439 348.224C62.6063 348.224 62.4859 348.379 62.6235 348.448C65.4778 350.012 68.2806 351.68 71.2209 353.245C72.6481 354.019 74.0925 354.775 75.5713 355.48C76.7837 356.2 78.1004 356.728 79.4745 357.045C80.8639 360.856 81.7821 364.824 82.2085 368.858C82.6727 374.549 82.6212 380.275 82.7587 386.053C82.7587 386.139 82.8963 386.139 82.8963 386.053C83.3262 380.894 83.5497 375.736 83.5669 370.491C83.5564 365.644 82.7608 360.83 81.2112 356.237V356.237Z" fill="#263238"/>
<path d="M74.7975 326.662C74.3967 329.601 74.2529 332.57 74.3676 335.534C74.3676 335.534 74.5051 335.534 74.5051 335.534C74.6771 332.594 74.6943 329.654 75.0382 326.73C75.0554 326.558 74.8147 326.507 74.7975 326.662Z" fill="#263238"/>
<path d="M62.8814 329.189C61.0243 328.473 59.2347 327.592 57.5338 326.558C57.3962 326.455 57.2587 326.679 57.3962 326.782C59.0664 327.901 60.8911 328.77 62.8126 329.361C62.9158 329.378 62.9846 329.224 62.8814 329.189Z" fill="#263238"/>
<path d="M84.633 446.544C84.633 441.953 84.5126 437.345 84.461 432.789C84.461 417.502 84.2547 402.233 83.9796 386.947C83.7618 374.807 83.4809 362.673 83.137 350.545C83.1185 350.494 83.0818 350.451 83.0339 350.425C83.0339 347.106 83.0339 343.805 83.0339 340.486C83.0339 340.486 83.0339 340.366 82.8447 340.366C82.6556 340.366 82.6384 340.366 82.6384 340.486V350.442C82.6093 350.457 82.5845 350.479 82.5664 350.506C82.5484 350.533 82.5376 350.564 82.5352 350.597C81.9334 372.177 81.3831 393.791 81.2456 415.387C81.2456 419.772 81.2456 424.174 81.2456 428.559C81.0851 442.636 81.0278 456.718 81.0736 470.807C81.0736 473.042 81.0736 475.294 81.0736 477.53C81.0736 490.409 81.2112 503.322 81.2284 516.184C81.2284 516.872 81.985 517.216 82.8103 517.25C83.6357 517.284 84.7361 516.923 84.7361 516.132C84.7361 501.912 84.8393 487.709 84.8393 473.506C84.7534 464.462 84.7533 455.503 84.633 446.544Z" fill="#263238"/>
<path d="M67.2489 432.565C67.2489 432.565 47.2168 417.726 28.1993 427.75C9.18172 437.775 6.207 476.446 6.207 476.446C6.207 476.446 34.1315 480.436 51.7047 463.705C68.6417 447.576 67.2489 432.565 67.2489 432.565Z" fill="#4389F3"/>
<path d="M72.7169 433.476C69.0315 432.025 65.0448 431.505 61.1103 431.963C60.3024 431.831 59.4869 431.751 58.6687 431.722L55.8315 431.516C53.8885 431.361 51.9455 431.258 50.0024 431.103C46.0476 430.811 42.0756 430.57 38.1379 430.175C38.0004 430.175 37.966 430.398 38.1379 430.416C42.0412 430.914 45.9272 431.482 49.8477 431.877C51.8595 432.084 53.8713 432.29 55.9003 432.427L57.3618 432.565C56.76 432.703 56.1754 432.84 55.6424 433.012C52.4992 433.928 49.4572 435.161 46.5635 436.692C44.9815 436.984 43.4168 437.431 41.8692 437.792C39.376 438.377 36.9171 439.013 34.4582 439.667C29.5921 440.939 24.7775 442.366 19.9457 443.776C19.791 443.776 19.9457 444.051 19.9457 444.017C24.7775 442.83 29.6265 441.747 34.4582 440.578C36.8139 440.028 39.1524 439.477 41.5081 438.858L43.348 438.428C37.9632 441.757 33.1548 445.938 29.1106 450.809C25.1985 455.6 21.8735 460.841 19.2064 466.422C19.2064 466.559 19.3439 466.697 19.4299 466.559C22.7352 460.815 26.7821 455.531 31.4663 450.843L31.2084 451.634L29.9876 455.314C29.2482 457.67 28.4916 460.025 27.7866 462.398C27.7866 462.553 27.993 462.604 28.0445 462.398C28.8871 460.111 29.6781 457.807 30.4862 455.52C30.8817 454.403 31.2772 453.268 31.6899 452.081L32.2745 450.362L32.4808 449.829C34.7098 447.654 37.0823 445.632 39.5823 443.776C42.8849 441.35 46.4494 439.303 50.2088 437.672C50.2088 438.016 50.0884 438.377 50.0196 438.704C49.8133 439.615 49.6069 440.526 49.4178 441.438C49.0223 443.346 48.6612 445.238 48.3001 447.146C47.5436 451.015 47.0621 454.936 46.3399 458.822C46.3497 458.848 46.3673 458.871 46.3903 458.887C46.4134 458.903 46.4408 458.911 46.4689 458.911C46.497 458.911 46.5244 458.903 46.5474 458.887C46.5705 458.871 46.5881 458.848 46.5978 458.822C47.492 454.918 48.644 451.084 49.521 447.164C49.9508 445.22 50.3979 443.26 50.7934 441.3L51.3608 438.549C51.464 438.05 51.5672 437.534 51.636 437.018L52.7192 436.571C57.9809 434.628 63.7927 433.218 69.3983 434.284C72.0429 434.785 74.5238 435.929 76.6227 437.614C78.7216 439.299 80.3741 441.474 81.4347 443.948C81.6067 444.395 82.2945 444.12 82.1913 443.673C81.5181 441.352 80.3104 439.22 78.6652 437.449C77.0199 435.679 74.9827 434.318 72.7169 433.476V433.476Z" fill="#263238"/>
<path d="M42.0412 450.001L40.3217 457.601C39.6955 460.038 39.2302 462.514 38.9289 465.012C38.9289 465.115 39.0665 465.115 39.1008 465.012C39.8382 462.565 40.4127 460.072 40.8203 457.549C41.319 455.056 41.8176 452.546 42.2991 450.035C42.3014 450.018 42.3003 450.001 42.2959 449.984C42.2915 449.968 42.2839 449.952 42.2735 449.939C42.2631 449.925 42.2502 449.914 42.2354 449.905C42.2206 449.897 42.2043 449.891 42.1873 449.889C42.1704 449.887 42.1532 449.888 42.1367 449.892C42.1202 449.897 42.1047 449.904 42.0911 449.915C42.0775 449.925 42.0661 449.938 42.0576 449.953C42.049 449.967 42.0434 449.984 42.0412 450.001V450.001Z" fill="#263238"/>
<path d="M22.6625 456.449C20.1177 457.738 17.6416 459.217 14.9764 460.266C14.9548 460.268 14.934 460.275 14.9157 460.287C14.8974 460.298 14.8821 460.314 14.871 460.333C14.8599 460.351 14.8534 460.372 14.852 460.394C14.8506 460.416 14.8543 460.437 14.8628 460.457C14.8714 460.477 14.8845 460.495 14.9011 460.509C14.9178 460.522 14.9375 460.532 14.9586 460.537C14.9797 460.542 15.0017 460.542 15.0227 460.536C15.0437 460.531 15.0632 460.521 15.0796 460.507C17.6958 459.313 20.2497 457.988 22.7313 456.535C22.7313 456.535 22.7313 456.414 22.6625 456.449Z" fill="#263238"/>
<path d="M71.754 405.311C71.754 405.311 47.2684 406.876 35.8682 390.73C24.468 374.584 27.0472 351.525 27.0472 351.525C27.0472 351.525 52.8396 354.655 62.9674 366.244C73.0952 377.834 71.754 405.311 71.754 405.311Z" fill="#4389F3"/>
<path d="M83.2401 429.522C82.3976 426.891 81.3487 424.363 80.3514 421.732C79.3541 419.101 78.3912 416.832 77.3079 414.407C75.1192 409.471 72.6683 404.655 69.9657 399.981C68.2462 397.006 66.3891 394.117 64.4805 391.263C64.4805 390.833 64.3601 390.403 64.2913 389.973C64.171 389.199 64.0678 388.443 63.9474 387.686C63.7067 386.139 63.4316 384.591 63.1737 383.044C62.6062 379.605 61.9184 376.303 61.4542 372.933C61.4542 372.761 61.1619 372.761 61.1963 372.933C61.6949 376.269 62.0216 379.639 62.4859 382.975C62.7266 384.694 62.9329 386.259 63.1909 387.91C63.1909 388.494 63.3628 389.096 63.466 389.629C59.7488 384.171 55.7304 378.924 51.4296 373.913C50.8449 373.243 50.2431 372.589 49.7101 371.919C49.6505 371.724 49.5758 371.534 49.4865 371.351L48.9535 369.958C48.5924 368.978 48.2485 368.015 47.9046 367.035C47.2168 365.127 46.5978 363.184 46.0819 361.206C46.0819 361.051 45.7896 361.206 45.824 361.206C46.3227 363.218 46.8557 365.213 47.4403 367.207C47.7155 368.153 48.0422 369.099 48.3689 370.044L48.5408 370.526C45.4113 367.087 42.1443 363.82 38.8601 360.57C38.7397 360.45 38.5678 360.57 38.6709 360.759C45.0037 367.376 50.8049 374.483 56.0206 382.012C55.4563 381.826 54.8823 381.671 54.3011 381.548C52.4097 381.187 50.5182 380.912 48.6096 380.671C44.6204 380.172 40.6484 379.656 36.6763 379.037C36.6605 379.037 36.6449 379.04 36.6303 379.046C36.6157 379.052 36.6024 379.061 36.5912 379.073C36.58 379.084 36.5712 379.097 36.5651 379.112C36.5591 379.126 36.556 379.142 36.556 379.158C36.556 379.173 36.5591 379.189 36.5651 379.204C36.5712 379.218 36.58 379.232 36.5912 379.243C36.6024 379.254 36.6157 379.263 36.6303 379.269C36.6449 379.275 36.6605 379.278 36.6763 379.278C40.4764 380.035 44.2249 380.877 48.0078 381.754C49.7273 382.167 51.5671 382.511 53.3554 382.855C54.8145 383.17 56.2506 383.584 57.6541 384.093C58.0496 384.643 58.4623 385.21 58.8406 385.812C60.646 388.426 62.3655 391.091 63.999 393.791L61.1791 393.412C59.2876 393.051 57.3962 392.707 55.4876 392.398C51.7563 391.779 48.025 391.125 44.3281 390.3C44.1733 390.3 44.1045 390.506 44.3281 390.541C48.0766 391.418 51.7906 392.449 55.5047 393.429C57.2242 393.911 59.0985 394.341 60.9211 394.753L63.6379 395.338C63.9973 395.438 64.3661 395.502 64.7384 395.527C68.3149 401.328 71.6622 407.26 74.7802 413.324C76.1444 415.983 77.4626 418.672 78.7351 421.388C80.0419 424.157 81.1595 426.994 82.3804 429.814C82.5523 430.313 83.4465 430.089 83.2401 429.522Z" fill="#263238"/>
<path d="M58.1872 373.191C57.7057 370.87 57.2243 368.531 56.7084 366.21C56.7084 366.055 56.4333 366.124 56.4677 366.21C56.932 368.514 57.3618 370.801 57.7745 373.088C58.1872 375.375 58.5311 377.713 59.1673 379.966C58.9921 377.688 58.6646 375.425 58.1872 373.191V373.191Z" fill="#263238"/>
<path d="M43.8982 372.52C42.7493 371.967 41.5728 371.474 40.3733 371.042L38.5162 370.302L37.5705 369.924C37.2068 369.826 36.8593 369.675 36.5388 369.477C36.3497 369.339 36.2465 369.666 36.4184 369.683C36.7817 369.791 37.1331 369.935 37.4673 370.113L38.3959 370.526L40.1154 371.334C41.2923 371.875 42.4977 372.351 43.7263 372.761C43.7582 372.784 43.7979 372.793 43.8366 372.787C43.8753 372.78 43.9098 372.759 43.9326 372.727C43.9554 372.695 43.9646 372.655 43.9582 372.616C43.9517 372.578 43.9302 372.543 43.8982 372.52Z" fill="#263238"/>
<path d="M96.7897 386.053C96.7897 386.053 111.612 358.386 134.154 354.087C156.697 349.789 170.487 373.002 170.487 373.002C170.487 373.002 154.049 393.997 133.363 397.659C112.678 401.322 96.7897 386.053 96.7897 386.053Z" fill="#4389F3"/>
<path d="M149.286 366.502C143.409 365.711 137.449 365.781 131.592 366.709L132.607 366.175L137.61 363.596C141.049 361.877 144.574 359.882 148.185 358.438C148.2 358.431 148.213 358.421 148.224 358.41C148.235 358.398 148.244 358.384 148.249 358.369C148.255 358.353 148.257 358.337 148.257 358.321C148.256 358.305 148.252 358.289 148.245 358.274C148.239 358.26 148.229 358.247 148.217 358.236C148.205 358.225 148.191 358.216 148.176 358.211C148.161 358.205 148.145 358.202 148.129 358.203C148.113 358.204 148.097 358.207 148.082 358.214C144.643 359.848 140.912 361.223 137.37 362.857C135.65 363.665 133.931 364.576 132.211 365.436C131.094 366.021 129.856 366.571 128.772 367.276C123.822 368.277 119.013 369.877 114.449 372.039L117.269 368.978C119.367 366.674 121.43 364.25 123.734 362.1C123.854 361.98 123.734 361.808 123.545 361.911C121.189 364.061 118.696 366.038 116.409 368.273C115.263 369.351 114.197 370.497 113.211 371.712C112.695 372.28 112.179 372.882 111.681 373.432C103.94 377.575 97.2149 383.383 91.9905 390.439C86.7662 397.495 83.1727 405.623 81.4691 414.235C81.4691 414.39 81.6582 414.476 81.7098 414.321C84.8776 403.77 90.56 394.146 98.2685 386.276C106.56 377.811 117.006 371.77 128.48 368.806C135.282 367.07 142.317 366.431 149.32 366.915C149.36 366.895 149.393 366.863 149.414 366.824C149.436 366.786 149.445 366.741 149.442 366.697C149.438 366.653 149.421 366.61 149.393 366.576C149.366 366.541 149.328 366.515 149.286 366.502V366.502Z" fill="#263238"/>
<path opacity="0.1" d="M170.522 373.002C170.522 373.002 154.066 394.014 133.381 397.659C117.596 400.462 104.613 392.226 99.3518 388.185L98.1997 386.311C98.1997 386.311 108.878 377.318 129.151 372.125C149.423 366.932 170.522 373.002 170.522 373.002Z" fill="black"/>
<path d="M136.183 356.632C134.461 357.648 132.791 358.75 131.18 359.934C129.613 361.125 128.158 362.454 126.829 363.906C126.813 363.932 126.806 363.963 126.81 363.994C126.814 364.024 126.827 364.053 126.849 364.075C126.871 364.097 126.9 364.111 126.93 364.114C126.961 364.118 126.992 364.111 127.018 364.095C128.514 362.805 130.028 361.498 131.575 360.26C133.087 359.02 134.671 357.872 136.321 356.821C136.458 356.753 136.338 356.546 136.183 356.632Z" fill="#263238"/>
<path d="M148.564 361.309C147.721 361.67 146.844 361.963 146.036 362.307L143.525 363.356C143.354 363.356 143.44 363.717 143.525 363.648L146.036 362.616C146.878 362.289 147.755 361.894 148.546 361.55C148.787 361.498 148.701 361.258 148.564 361.309Z" fill="#263238"/>
<path d="M93.8494 420.924C93.8494 420.924 97.8214 448.436 118.455 457.979C139.089 467.522 164.28 457.979 164.28 457.979C164.28 457.979 154.376 398.571 93.8494 420.924Z" fill="#4389F3"/>
<path d="M150.094 440.096C148.185 439.873 146.294 439.546 144.402 439.202L141.634 438.686L140.172 438.394C139.622 437.878 139.072 437.345 138.453 436.847C134.541 433.41 130.315 430.347 125.832 427.699C123.392 426.245 120.865 424.942 118.266 423.796H118.644C120.914 423.899 123.184 423.985 125.522 424.105C130.062 424.311 134.601 424.415 139.124 424.707C139.278 424.707 139.278 424.466 139.124 424.449C134.567 424.139 130.045 423.641 125.505 423.245L118.902 422.661L115.463 422.368L114.604 422.265C113.417 421.835 112.231 421.423 111.044 421.044C105.41 419.115 99.3518 418.781 93.5399 420.082C88.3814 421.406 83.223 424.81 81.8302 430.295C81.8142 430.339 81.8161 430.387 81.8355 430.428C81.8548 430.47 81.89 430.503 81.9334 430.519C81.9767 430.535 82.0246 430.533 82.0665 430.514C82.1084 430.494 82.1409 430.459 82.1569 430.416C84.0827 425.842 89.1724 423.538 93.7463 422.592C96.8316 422.005 99.9937 421.941 103.1 422.403C103.324 423.819 103.675 425.211 104.149 426.564C104.717 428.49 105.284 430.416 105.869 432.359C107.038 436.21 108.328 440.028 109.462 443.896C109.468 443.912 109.477 443.927 109.488 443.939C109.499 443.952 109.513 443.962 109.528 443.969C109.543 443.976 109.56 443.98 109.576 443.981C109.593 443.982 109.61 443.979 109.626 443.974C109.642 443.968 109.656 443.96 109.669 443.948C109.681 443.937 109.691 443.923 109.698 443.908C109.705 443.893 109.71 443.877 109.71 443.86C109.711 443.843 109.709 443.826 109.703 443.811C108.757 439.959 107.984 436.073 107.021 432.221C106.556 430.312 106.075 428.421 105.611 426.53C105.349 425.208 105.005 423.904 104.579 422.626C106.383 422.953 108.169 423.378 109.927 423.899C113.115 424.842 116.24 425.991 119.281 427.338C119.59 429.298 120.02 431.241 120.467 433.167C121.035 435.591 121.671 437.999 122.445 440.354C122.445 440.509 122.702 440.44 122.668 440.354C122.658 440.205 122.658 440.056 122.668 439.907C122.204 437.655 121.722 435.419 121.241 433.184C120.863 431.465 120.519 429.556 120.123 427.75C122.691 428.895 125.199 430.169 127.637 431.568C127.637 432.118 127.827 432.685 127.913 433.287C128.067 434.233 128.222 435.161 128.394 436.107C128.789 438.222 129.219 440.337 129.718 442.435C130.655 446.483 131.844 450.468 133.277 454.368C133.277 454.368 133.277 454.471 133.277 454.523L133.398 454.66C133.484 454.764 133.621 454.66 133.604 454.54C132.641 450.465 131.558 446.424 130.664 442.349C130.217 440.303 129.77 438.274 129.357 436.228C129.151 435.196 128.961 434.181 128.772 433.15L128.618 432.238C131.398 433.869 134.085 435.654 136.665 437.586C141.116 440.935 145.239 444.7 148.976 448.831C149.114 448.986 149.406 448.831 149.269 448.573C147.735 446.489 146.094 444.486 144.351 442.572C143.319 441.472 142.236 440.389 141.135 439.34H141.479C142.442 439.512 143.422 439.649 144.385 439.787C146.294 440.045 148.22 440.234 150.128 440.44C150.094 440.354 150.214 440.114 150.094 440.096Z" fill="#263238"/>
<path d="M135.547 449.399C135.547 449.158 135.461 448.917 135.427 448.694C135.392 448.47 135.22 448.092 135.169 447.8C134.739 445.96 134.378 444.12 134.051 442.263C134.051 442.125 133.828 442.263 133.828 442.263C133.951 444.723 134.479 447.146 135.392 449.433C135.392 449.433 135.564 449.433 135.547 449.433V449.399Z" fill="#263238"/>
<path d="M118.266 448.969C118.266 448.883 118.266 448.849 118.146 448.849C117.561 446.407 116.994 443.982 116.426 441.541C116.168 440.251 115.893 438.962 115.653 437.672C115.515 436.984 115.395 436.279 115.274 435.591C115.2 435.001 115.05 434.423 114.827 433.872C114.815 433.85 114.798 433.832 114.777 433.82C114.755 433.807 114.731 433.801 114.707 433.801C114.682 433.801 114.658 433.807 114.637 433.82C114.616 433.832 114.598 433.85 114.586 433.872C114.571 435.118 114.745 436.358 115.102 437.552C115.36 438.893 115.618 440.234 115.91 441.558C116.512 444.275 117.2 446.974 117.957 449.64C117.957 449.676 117.971 449.711 117.997 449.737C118.023 449.763 118.058 449.777 118.094 449.777C118.131 449.777 118.166 449.763 118.191 449.737C118.217 449.711 118.232 449.676 118.232 449.64C118.283 449.365 118.266 449.158 118.266 448.969Z" fill="#263238"/>
<path d="M148.168 432.187C144.402 431.671 140.637 431.121 136.854 430.656C136.699 430.656 136.63 430.88 136.854 430.914C140.62 431.465 144.402 431.929 148.168 432.427C148.271 432.445 148.374 432.204 148.168 432.187Z" fill="#263238"/>
<path d="M83.2746 356.495C83.2746 356.495 70.6363 301.076 130.199 278.636C130.199 278.636 146.655 351.594 83.2746 356.495Z" fill="#4389F3"/>
<path d="M96.1363 325.063L96.7897 324.633L100.229 322.758L107.107 318.89C111.663 316.345 116.151 313.731 120.725 311.221C120.863 311.135 120.725 310.928 120.587 310.997C115.996 313.49 111.337 315.829 106.728 318.271L99.8504 321.881L97.0649 323.343C99.0423 319.577 101.174 315.88 103.496 312.338C106.608 307.593 110.03 303.07 113.572 298.582C113.598 298.565 113.62 298.542 113.636 298.516C113.652 298.489 113.661 298.459 113.664 298.428C113.667 298.397 113.663 298.366 113.651 298.336C113.64 298.307 113.623 298.281 113.6 298.26C113.577 298.238 113.55 298.222 113.52 298.213C113.491 298.204 113.459 298.201 113.428 298.206C113.397 298.21 113.368 298.222 113.342 298.239C113.317 298.257 113.295 298.28 113.28 298.307C108.058 303.386 103.442 309.052 99.5237 315.193C99.5237 314.986 99.5237 314.797 99.5237 314.608C99.5237 313.232 99.6269 311.857 99.6441 310.464C99.6441 307.764 99.5581 305.048 99.6441 302.348C99.6441 302.193 99.4034 302.193 99.3862 302.348C99.283 305.013 98.9563 307.661 98.8015 310.326C98.8015 311.65 98.6812 312.975 98.6296 314.316C98.6296 315.021 98.6296 315.846 98.6296 316.637C97.3916 318.58 96.2223 320.557 95.1906 322.569C93.1972 326.182 91.4173 329.908 89.8602 333.729C89.8602 332.353 89.7226 330.978 89.6366 329.585C89.4647 326.558 89.0864 323.532 88.966 320.506C88.966 320.472 88.9525 320.439 88.9283 320.415C88.9041 320.39 88.8713 320.377 88.8371 320.377C88.8029 320.377 88.7701 320.39 88.7459 320.415C88.7217 320.439 88.7081 320.472 88.7081 320.506C88.7081 323.549 88.7081 326.576 88.7081 329.619C88.7081 331.132 88.8113 332.645 88.8973 334.159C88.8973 334.726 88.8973 335.293 89.0176 335.878C87.1076 340.827 85.601 345.921 84.5126 351.113C83.4809 356.647 82.7404 362.232 82.2944 367.843C82.9208 362.789 83.9734 357.796 85.4411 352.918C86.1805 350.305 86.9542 347.76 87.7968 345.112C90.2729 343.943 92.6458 342.498 95.0359 341.174C97.426 339.85 100.022 338.44 102.516 337.082C107.485 334.348 112.437 331.579 117.578 329.172C117.716 329.172 117.578 328.897 117.441 328.949C112.282 331.304 107.021 333.54 101.965 336.102C99.4378 337.374 96.9273 338.75 94.4512 340.142C92.3878 341.295 90.2729 342.464 88.2954 343.805C88.8629 342.085 89.4647 340.366 90.1353 338.646C91.9064 334.021 93.9093 329.487 96.1363 325.063V325.063Z" fill="#263238"/>
<path d="M91.1154 312.39C91.1154 312.235 90.8403 312.235 90.8575 312.39C91.0639 315.554 91.1842 318.718 91.5109 321.864C91.5109 322.053 91.8032 322.053 91.786 321.864C91.6313 318.7 91.339 315.554 91.1154 312.39Z" fill="#263238"/>
<path d="M119.659 322.913C115.928 324.409 112.179 325.836 108.465 327.384C108.362 327.384 108.465 327.59 108.465 327.556C112.231 326.146 115.945 324.615 119.693 323.154C119.882 323.154 119.814 322.913 119.659 322.913Z" fill="#263238"/>
<path d="M125.316 297.413C121.678 299.086 118.146 300.981 114.741 303.087C114.723 303.098 114.707 303.111 114.694 303.128C114.682 303.144 114.672 303.162 114.667 303.182C114.661 303.202 114.659 303.223 114.662 303.244C114.664 303.264 114.671 303.284 114.681 303.302C114.691 303.32 114.705 303.336 114.721 303.349C114.737 303.362 114.756 303.371 114.776 303.377C114.796 303.383 114.817 303.384 114.837 303.382C114.858 303.379 114.878 303.373 114.896 303.363C118.335 301.351 121.877 299.408 125.454 297.637C125.608 297.551 125.471 297.344 125.316 297.413Z" fill="#263238"/>
<path d="M124.422 476.36H38.5334V566.892H124.422V476.36Z" fill="#37474F"/>
<path d="M37.0375 508.395H32.6356V663.458H37.0375V508.395Z" fill="#263238"/>
<path d="M129.873 508.395H125.471V663.458H129.873V508.395Z" fill="#263238"/>
<path d="M85.8022 508.395H81.4003V663.458H85.8022V508.395Z" fill="#263238"/>
<path d="M127.672 561.08H34.8193V573.615H127.672V561.08Z" fill="#263238"/>
<path d="M372.063 713.771C368.211 715.06 257.837 714.734 253.642 712.051C252.043 711.054 251.148 694.959 250.633 675.512C250.512 671.316 250.426 666.914 250.357 662.564C250.271 657.406 250.203 652.058 250.168 646.934C250.031 623.876 250.357 603.586 250.357 603.586H322.198V662.564L321.819 675.512C321.819 675.512 364.016 694.547 368.246 697.968C372.476 701.39 375.915 712.515 372.063 713.771Z" fill="#FFD099"/>
<path d="M372.063 713.77C368.211 715.06 257.837 714.733 253.642 712.051C252.146 711.122 251.269 697.109 250.753 679.484C259.591 683.576 335.919 699.241 353.922 699.447C371.117 699.619 343.709 685.691 339.324 683.542C351.463 689.182 365.873 696.042 368.28 697.968C372.544 701.407 375.915 712.515 372.063 713.77Z" fill="#263238"/>
<path d="M211.549 274.062C211.549 274.062 249.223 463.206 251.871 477.151C252.472 480.333 248.432 661.275 248.432 661.275H324.45C324.45 661.275 327.03 501.74 323.659 473.85C320.289 445.96 277.629 274.062 277.629 274.062H211.549Z" fill="#4389F3"/>
<path opacity="0.2" d="M211.549 274.062C211.549 274.062 249.223 463.206 251.871 477.151C252.472 480.333 248.432 661.275 248.432 661.275H324.45C324.45 661.275 327.03 501.74 323.659 473.85C320.289 445.96 277.629 274.062 277.629 274.062H211.549Z" fill="black"/>
<path opacity="0.2" d="M211.549 274.062C211.549 274.062 229.878 366.107 241.88 426.53L277.646 274.062H211.549Z" fill="black"/>
<path d="M308.7 643.547L309.233 569.608L309.921 495.67C309.921 489.549 310.075 483.273 309.835 477.289C308.854 471.322 307.651 465.253 306.482 459.183L299.329 422.919L292.227 386.534L285.263 350.219C290.616 374.292 295.775 398.399 300.738 422.54L308.081 458.77C309.267 464.857 310.522 470.807 311.52 477.031C311.743 483.342 311.52 489.411 311.52 495.602C311.245 520.259 310.861 544.905 310.368 569.54C310.007 594.266 309.336 618.906 308.7 643.547Z" fill="#263238"/>
<path d="M261.861 732.152C257.906 733.098 147.979 723.107 144.024 720.116C142.528 718.981 143.061 702.921 144.23 683.456C144.488 679.26 151.813 609.931 151.813 609.931L221.831 618.064L215.125 689.681C215.125 689.681 255.482 712.343 259.454 716.126C263.426 719.909 265.798 731.137 261.861 732.152Z" fill="#FFD099"/>
<path d="M261.861 732.152C257.906 733.098 147.979 723.107 144.024 720.115C142.7 719.101 142.975 706.273 143.869 689.818C159.345 695.853 226.405 713.478 243.256 714.63C258.491 715.662 239.439 703.694 231.873 699.155C243.48 705.826 257.218 713.925 259.385 716.057C263.408 719.771 265.799 731.137 261.861 732.152Z" fill="#263238"/>
<path d="M219.252 672.331L144.506 664.129C144.506 664.129 160.755 541.323 162.027 520.5C162.663 509.873 173.737 394.53 179.893 343.392C179.893 343.392 164.899 311.857 190.072 273.942H277.766C277.766 273.942 276.373 311.771 266.331 337.013C258.455 339.77 250.818 343.169 243.497 347.175C243.497 347.175 234.899 510.2 232.664 535.236C229.448 569.591 219.252 672.331 219.252 672.331Z" fill="#4389F3"/>
<g opacity="0.2">
<path opacity="0.2" d="M219.252 672.331L144.506 664.129C144.506 664.129 160.755 541.323 162.027 520.5C162.663 509.873 173.737 394.53 179.893 343.392C179.893 343.392 164.899 311.857 190.072 273.942H277.766C277.766 273.942 276.373 311.771 266.331 337.013C258.455 339.77 250.818 343.169 243.497 347.175C243.497 347.175 234.899 510.2 232.664 535.236C229.448 569.591 219.252 672.331 219.252 672.331Z" fill="black"/>
</g>
<path d="M208.281 659.056L211.858 620.763L215.589 582.556L223.172 506.039C223.482 502.858 223.826 499.642 224.066 496.513L224.634 486.918L225.769 467.729L228.073 429.35L230.48 390.971L233.077 352.609L231.357 391.022L229.414 429.418L227.368 467.797L226.319 486.987L225.752 496.582C225.511 499.832 225.184 502.978 224.892 506.194C222.301 531.688 219.636 557.182 216.896 582.677L212.683 620.884L208.281 659.056Z" fill="#263238"/>
<path d="M196.383 166.818C196.383 184.821 193.167 206.366 201.541 223.148C208.058 236.234 220.989 244.711 234.211 249.938C263.322 261.441 303.455 261.476 322.352 232.262C329.884 220.603 330.297 196.909 316.678 188.81C309.68 184.649 301.529 183.961 293.757 182.19C288.904 181.262 284.322 179.252 280.353 176.307C276.385 173.363 273.132 169.561 270.837 165.184C260.898 147.13 262.239 133.563 259.625 113.686C259.52 111.691 258.996 109.742 258.086 107.964C257.177 106.186 255.902 104.621 254.347 103.369C250.956 100.293 246.797 98.1895 242.31 97.2816C238.433 95.7803 234.245 95.2605 230.119 95.7685C221.315 97.0581 213.165 105.535 206.545 110.883C199.925 116.23 196.881 121.802 196.692 130.502C196.348 142.625 196.52 154.73 196.383 166.818Z" fill="#263238"/>
<path d="M194.508 175.381C195.643 158.874 197.105 142.418 198.463 125.946C198.463 125.842 198.635 125.842 198.635 125.946C197.913 139.53 197.363 153.114 196.469 166.715C195.592 180.024 193.769 193.642 194.044 207.002C194.698 236.956 225.958 247.892 251.355 245.399C252.524 245.295 252.576 247.118 251.355 247.221C229.001 248.7 201.971 242.063 194.233 218.076C190.021 204.922 193.58 188.793 194.508 175.381Z" fill="#263238"/>
<path d="M258.078 112.172C258.078 111.863 258.542 111.863 258.559 112.172C259.987 128.594 260.09 147.886 270.046 161.848C274.952 168.719 281.821 173.945 289.751 176.842C296.027 179.112 302.596 179.061 309.112 180.075C334.578 184.013 336.212 218.145 318.38 232.193C318.002 232.485 317.486 231.849 317.847 231.539C330.365 220.707 333.856 201.827 322.765 188.552C313.858 177.857 297.764 182.018 285.985 176.516C261.586 165.098 258.525 136.108 258.078 112.172Z" fill="#263238"/>
<path d="M236.069 187.349C242.723 206.676 278.763 253.016 294.032 257.194C305.089 260.203 350.466 237.764 363.19 229.184C375.45 220.913 348.592 185.853 341.043 190.203C330.4 196.359 302.32 214.396 297.833 214.276C294.703 214.155 277.886 201.414 252.421 178.734C238.39 166.113 232.165 175.811 236.069 187.349Z" fill="#FFD099"/>
<path d="M364.618 136.211L344.259 184.357C344.062 184.612 343.936 184.916 343.895 185.236C343.854 185.557 343.899 185.882 344.025 186.18C344.15 186.477 344.353 186.736 344.612 186.929C344.871 187.122 345.176 187.243 345.497 187.28L371.375 191.269C372.175 191.333 372.976 191.168 373.685 190.793C374.395 190.419 374.983 189.85 375.382 189.154L395.74 141.008C395.937 140.752 396.063 140.449 396.104 140.128C396.145 139.808 396.101 139.483 395.975 139.185C395.849 138.888 395.646 138.629 395.387 138.436C395.129 138.243 394.823 138.122 394.502 138.085L368.624 134.096C367.824 134.032 367.023 134.197 366.314 134.572C365.604 134.946 365.016 135.515 364.618 136.211V136.211Z" fill="#37474F"/>
<path d="M367.695 136.658L347.337 184.804C347.14 185.06 347.014 185.363 346.973 185.684C346.932 186.004 346.976 186.329 347.102 186.627C347.228 186.924 347.431 187.183 347.69 187.376C347.948 187.569 348.254 187.69 348.575 187.727L374.453 191.716C375.252 191.778 376.053 191.612 376.762 191.237C377.471 190.863 378.059 190.296 378.459 189.601L398.818 141.455C399.015 141.2 399.141 140.896 399.182 140.576C399.223 140.255 399.178 139.93 399.053 139.632C398.927 139.335 398.724 139.076 398.465 138.883C398.206 138.69 397.901 138.569 397.58 138.532L371.702 134.543C370.902 134.479 370.101 134.644 369.392 135.019C368.682 135.393 368.094 135.962 367.695 136.658Z" fill="#455A64"/>
<path d="M374.436 140.045C374.358 140.476 374.155 140.875 373.851 141.19C373.547 141.506 373.157 141.724 372.729 141.818C372.301 141.912 371.855 141.878 371.447 141.718C371.039 141.559 370.687 141.283 370.436 140.924C370.184 140.565 370.045 140.14 370.035 139.702C370.025 139.264 370.145 138.833 370.38 138.463C370.615 138.093 370.954 137.801 371.354 137.624C371.755 137.447 372.199 137.392 372.63 137.466C373.211 137.571 373.726 137.901 374.064 138.384C374.402 138.867 374.536 139.464 374.436 140.045V140.045Z" fill="#263238"/>
<path d="M386.541 197.597C390.737 184.872 389.86 180.969 399.111 172.114C405.18 166.302 404.063 159.94 395.672 162.364C381.916 166.302 373.077 181.571 371.599 187.761L386.541 197.597Z" fill="#FFD099"/>
<path d="M363.878 228.943C363.878 228.943 378.477 216.786 384.289 203.684C388.312 194.622 394.863 173.919 377.651 149.829C373.559 144.121 363.706 138.876 366.973 150.62C369.312 158.977 373.301 163.568 373.851 168.658C373.851 168.658 360.508 163.499 354.937 167.798C350.065 171.564 345.469 175.673 341.181 180.092C341.813 181.065 342.508 181.996 343.261 182.878C343.261 182.878 338.103 187.073 337.312 197.081L363.878 228.943Z" fill="#FFD099"/>
<path d="M386.747 194.416C385.217 189.446 381.778 178.94 375.983 171.392C369.553 162.966 354.902 148.471 348.729 153.285C344.207 156.81 349.314 162.829 349.314 162.829C349.314 162.829 341.989 158.117 338.602 162.192C335.507 165.924 339.737 170.343 339.737 170.343C339.737 170.343 334.802 168.245 332.515 172.406C329.764 177.393 340.562 181.004 342.144 188.449C342.505 190.117 386.747 194.416 386.747 194.416Z" fill="#FFD099"/>
<path d="M368.211 179.68C363.855 172.285 357.346 166.394 349.555 162.794C349.349 162.794 349.177 162.794 349.349 162.932C356.271 167.756 362.586 173.397 368.16 179.731L368.211 179.68Z" fill="#263238"/>
<path d="M359.528 185.921C357.224 182.293 348.97 173.593 339.857 170.188C339.651 170.188 339.496 170.188 339.668 170.343C346.83 174.794 353.463 180.043 359.442 185.99C359.442 185.99 359.545 185.956 359.528 185.921Z" fill="#263238"/>
<path d="M336.641 189.687L354.077 246.74C354.077 246.74 306.447 262.679 293.087 258.415C279.726 254.151 246.661 213.347 235.656 188.896C228.915 174.005 237.908 164.531 254.347 178.098C271.232 192.043 294.978 211.353 296.801 212.092C298.624 212.831 336.641 189.687 336.641 189.687Z" fill="#4389F3"/>
<path d="M332.463 223.269C331.449 219.004 327.459 201.895 326.789 197.58C326.789 197.58 326.892 197.459 326.909 197.58C328.354 201.586 332.79 218.351 333.787 222.632C336.072 231.123 337.886 239.734 339.221 248.425C339.218 248.456 339.207 248.486 339.188 248.51C339.168 248.534 339.142 248.552 339.112 248.562C339.083 248.571 339.051 248.571 339.021 248.562C338.991 248.553 338.965 248.535 338.946 248.511C336.246 240.189 334.492 231.677 332.463 223.269Z" fill="#263238"/>
<path opacity="0.1" d="M316.971 256.85C307.118 258.879 297.884 259.945 293.087 258.415C279.709 254.151 246.661 213.347 235.656 188.896C230.377 177.255 234.727 168.916 244.735 172.337L316.971 256.85Z" fill="black"/>
<path d="M277.113 245.656L277.629 274.062H190.45C190.45 274.062 191.155 208.464 213.715 180.195C225.442 165.545 239.078 166.938 248.5 175.966C250.89 178.252 277.405 210.149 280.706 224.111C282.386 231.486 281.095 239.226 277.113 245.656V245.656Z" fill="#EBEBEB"/>
<path d="M258.852 242.355C255.115 242.948 251.425 243.81 247.813 244.934C246.093 245.536 244.288 246.207 242.551 246.912L239.92 247.909C239.009 248.268 238.055 248.511 237.083 248.631C236.997 248.631 236.997 248.769 237.083 248.769C238.01 248.758 238.936 248.677 239.851 248.528C240.737 248.365 241.61 248.141 242.465 247.857C244.288 247.273 246.076 246.619 247.881 246.018C251.544 244.814 255.189 243.593 258.92 242.665C259.092 242.613 259.041 242.321 258.852 242.355Z" fill="#263238"/>
<path d="M268.378 245.055C265.259 244.937 262.135 245 259.024 245.244C257.459 245.364 255.929 245.57 254.381 245.828L252.18 246.224C251.372 246.396 250.598 246.654 249.79 246.809C249.79 246.809 249.79 246.946 249.79 246.929C250.564 246.826 251.355 246.826 252.128 246.757L254.45 246.533L259.092 246.121C262.205 245.794 265.283 245.519 268.395 245.313C268.421 245.301 268.442 245.282 268.457 245.258C268.472 245.234 268.478 245.206 268.477 245.178C268.475 245.149 268.464 245.122 268.446 245.101C268.429 245.079 268.405 245.062 268.378 245.055V245.055Z" fill="#263238"/>
<path d="M246.385 173.954C246.385 173.954 265.506 218.127 266.658 225.177C267.81 232.227 275.995 339.352 275.995 339.352C275.995 339.352 293.723 331.717 293.912 330.96C294.101 330.204 277.371 247.066 277.611 246.275C277.852 245.485 285.59 236.939 281.274 224.902C271.903 198.904 246.385 173.954 246.385 173.954Z" fill="#4389F3"/>
<path d="M269.358 254.856L272.264 215.118L261.947 204.801L267.329 203.735C267.329 203.735 248.277 176.223 246.368 174.022C246.815 175.226 260.743 207.329 263.426 216.339C265.73 223.871 269.547 253.205 269.358 254.856Z" fill="#4389F3"/>
<path opacity="0.2" d="M269.358 254.856L272.264 215.118L261.947 204.801L267.329 203.735C267.329 203.735 248.277 176.223 246.368 174.022C246.815 175.226 260.743 207.329 263.426 216.339C265.73 223.871 269.547 253.205 269.358 254.856Z" fill="black"/>
<path d="M224.032 171.478C224.032 171.478 234.573 226.708 235.295 231.78C236.017 236.853 236.859 342.705 236.859 342.705L168.389 330.96L187.544 272.945C187.974 271.655 194.715 208.739 208.35 186.609C216.655 173.025 224.032 171.478 224.032 171.478Z" fill="#4389F3"/>
<path d="M231.099 267.133C231.101 267.672 230.91 268.195 230.56 268.605C230.209 269.015 229.724 269.286 229.191 269.368C228.574 269.431 227.958 269.252 227.471 268.87C227.226 268.655 227.03 268.391 226.896 268.094C226.761 267.797 226.692 267.476 226.692 267.15C226.692 266.825 226.761 266.503 226.896 266.206C227.03 265.91 227.226 265.645 227.471 265.431C227.711 265.24 227.987 265.099 228.282 265.017C228.577 264.934 228.886 264.911 229.191 264.949C229.715 265.03 230.194 265.293 230.543 265.693C230.892 266.092 231.089 266.602 231.099 267.133V267.133ZM231.099 267.133C231.095 266.886 231.037 266.643 230.93 266.421C230.823 266.198 230.67 266.001 230.48 265.843C230.296 265.709 230.088 265.612 229.866 265.559C229.645 265.506 229.415 265.497 229.191 265.534C228.835 265.629 228.52 265.836 228.291 266.124C228.062 266.412 227.931 266.765 227.918 267.133C227.916 267.431 227.997 267.724 228.152 267.979C228.308 268.234 228.532 268.44 228.798 268.574C229.065 268.708 229.364 268.765 229.661 268.738C229.958 268.712 230.242 268.602 230.48 268.422C230.67 268.265 230.823 268.068 230.93 267.845C231.037 267.623 231.095 267.38 231.099 267.133V267.133Z" fill="#263238"/>
<path d="M231.099 287.732C231.101 288.272 230.91 288.794 230.56 289.204C230.209 289.614 229.724 289.885 229.191 289.968C228.886 290.006 228.577 289.983 228.282 289.9C227.987 289.818 227.711 289.677 227.471 289.486C227.226 289.27 227.028 289.006 226.889 288.71C226.75 288.415 226.673 288.093 226.663 287.767C226.666 287.439 226.74 287.116 226.88 286.819C227.019 286.522 227.221 286.259 227.471 286.047C227.798 285.776 228.195 285.604 228.616 285.55C229.037 285.497 229.464 285.564 229.848 285.744C230.232 285.925 230.557 286.211 230.785 286.569C231.012 286.927 231.133 287.342 231.134 287.767L231.099 287.732ZM231.099 287.732C231.095 287.486 231.037 287.243 230.93 287.02C230.823 286.798 230.67 286.601 230.48 286.443C230.295 286.311 230.086 286.218 229.865 286.168C229.643 286.118 229.414 286.112 229.191 286.15C228.828 286.226 228.503 286.425 228.271 286.714C228.039 287.002 227.914 287.362 227.918 287.732C227.931 288.1 228.062 288.454 228.291 288.742C228.52 289.029 228.835 289.236 229.191 289.332C229.415 289.368 229.645 289.359 229.866 289.306C230.088 289.253 230.296 289.156 230.48 289.022C230.67 288.864 230.823 288.667 230.93 288.445C231.037 288.222 231.095 287.979 231.099 287.732V287.732Z" fill="#263238"/>
<path d="M231.099 308.349C231.104 308.887 230.914 309.409 230.562 309.818C230.211 310.226 229.724 310.492 229.191 310.567C228.886 310.605 228.577 310.583 228.282 310.5C227.987 310.417 227.711 310.276 227.471 310.086C227.226 309.871 227.03 309.607 226.896 309.31C226.761 309.014 226.692 308.692 226.692 308.366C226.692 308.041 226.761 307.719 226.896 307.422C227.03 307.126 227.226 306.861 227.471 306.647C227.711 306.456 227.987 306.315 228.282 306.233C228.577 306.15 228.886 306.127 229.191 306.165C229.715 306.246 230.194 306.51 230.543 306.909C230.892 307.309 231.089 307.819 231.099 308.349V308.349ZM231.099 308.349C231.095 308.102 231.037 307.859 230.93 307.637C230.823 307.414 230.67 307.217 230.48 307.059C230.296 306.925 230.088 306.829 229.866 306.775C229.645 306.722 229.415 306.714 229.191 306.75C228.835 306.845 228.52 307.052 228.291 307.34C228.062 307.628 227.931 307.982 227.918 308.349C227.916 308.648 227.997 308.941 228.152 309.195C228.308 309.45 228.532 309.656 228.798 309.79C229.065 309.925 229.364 309.982 229.661 309.955C229.958 309.928 230.242 309.818 230.48 309.639C230.67 309.481 230.823 309.284 230.93 309.061C231.037 308.839 231.095 308.596 231.099 308.349V308.349Z" fill="#263238"/>
<path d="M231.099 328.949C231.101 329.488 230.91 330.01 230.56 330.42C230.209 330.831 229.724 331.102 229.191 331.184C228.885 331.219 228.576 331.193 228.281 331.107C227.986 331.021 227.71 330.878 227.471 330.685C227.224 330.471 227.024 330.207 226.884 329.911C226.745 329.615 226.67 329.293 226.663 328.966C226.666 328.638 226.74 328.315 226.88 328.018C227.019 327.721 227.221 327.458 227.471 327.246C227.798 326.975 228.195 326.803 228.616 326.749C229.037 326.696 229.464 326.763 229.848 326.943C230.232 327.124 230.557 327.41 230.785 327.768C231.012 328.126 231.133 328.541 231.134 328.966L231.099 328.949ZM231.099 328.949C231.095 328.702 231.037 328.459 230.93 328.236C230.823 328.014 230.67 327.817 230.48 327.659C230.295 327.528 230.086 327.434 229.865 327.384C229.643 327.334 229.414 327.328 229.191 327.367C228.828 327.442 228.503 327.641 228.271 327.93C228.039 328.218 227.914 328.578 227.918 328.949C227.931 329.316 228.062 329.67 228.291 329.958C228.52 330.246 228.835 330.452 229.191 330.548C229.415 330.584 229.645 330.575 229.866 330.522C230.088 330.469 230.296 330.373 230.48 330.238C230.67 330.08 230.823 329.883 230.93 329.661C231.037 329.438 231.095 329.195 231.099 328.949V328.949Z" fill="#263238"/>
<path d="M208.866 178.579C181.99 188.535 124.749 211.146 126.675 227.275C129.856 253.772 155.27 292.272 164.108 303.036C167.908 307.696 208.419 284.517 205.84 278.636C202.745 271.569 177.313 234.634 178.328 232.846C179.342 231.058 199.546 212.849 214.317 195.55C232.629 174.091 220.077 174.435 208.866 178.579Z" fill="#FFD099"/>
<path d="M188.267 263.178C188.267 263.178 205.909 267.958 217.309 271.621C223.671 273.684 234.263 278.155 238.252 281.8C244.202 287.251 265.644 313.834 259.316 319.165C253.573 323.996 238.063 298.823 238.063 298.823C238.063 298.823 255.963 322.896 248.002 327.401C240.041 331.906 226.267 301.162 226.267 301.162C226.267 301.162 244.116 326.266 235.157 329.654C228.382 332.216 214.351 305.03 214.351 305.03C214.351 305.03 229.534 326.713 222.691 329.654C215.108 332.886 200.595 308.607 200.595 308.607C181.905 313.146 170.934 308.607 163.987 302.847C162.371 301.523 188.267 263.178 188.267 263.178Z" fill="#FFD099"/>
<path d="M233.214 291.275C247.744 307.971 249.773 320.609 249.652 320.282C246.781 312.613 239.937 302.004 237.977 299.064C236.017 296.124 235.037 294.284 233.094 291.343C233.042 291.275 233.145 291.223 233.214 291.275Z" fill="#263238"/>
<path d="M221.676 296.983C227.865 303.467 232.849 311.002 236.395 319.233C236.516 319.56 236.395 319.526 236.154 319.233C233.782 315.433 224.118 300.697 221.59 297.035C221.556 296.983 221.625 296.932 221.676 296.983Z" fill="#263238"/>
<path d="M211.428 301.213C216.113 306.347 219.804 312.305 222.313 318.786C222.433 319.096 222.175 319.044 222.003 318.786C218.564 312.871 215.796 308.212 211.239 301.402C211.17 301.265 211.325 301.11 211.428 301.213Z" fill="#263238"/>
<path d="M198.807 266.17L151.315 294.576C151.315 294.576 121.757 238.228 126.193 224.077C130.629 209.925 197.002 178.442 213.784 174.727C225.82 172.097 226.525 182.121 218.341 192.937C209.554 204.509 179.136 232.657 178.895 233.5C178.655 234.342 198.807 266.17 198.807 266.17Z" fill="#4389F3"/>
<path d="M194.302 218.024C196.83 215.651 199.357 213.244 201.851 210.82C203.14 209.564 204.43 208.309 205.754 207.071L207.577 205.352C207.869 205.059 208.213 204.801 208.488 204.509C209.52 203.409 208.608 204.371 209.726 203.391C209.726 203.391 209.915 203.391 209.846 203.512C209.244 204.234 209.623 204.028 209.072 204.526C208.673 204.895 208.294 205.285 207.938 205.696C207.387 206.315 206.803 206.916 206.218 207.518C205.066 208.773 203.88 209.994 202.676 211.198L202.195 211.679L202.349 211.559C203.88 210.39 205.427 209.255 206.958 208.12V208.223C205.548 209.53 204.12 210.785 202.59 211.954C201.713 212.642 200.785 213.261 199.873 213.88C198.257 215.497 196.641 217.113 195.007 218.695C189.849 223.595 184.81 228.513 179.36 233.001C181.079 235.752 182.799 238.417 184.518 241.186C186.238 243.954 187.837 246.723 189.47 249.508C191.104 252.294 192.772 255.079 194.371 257.882C195.127 259.223 195.867 260.582 196.623 261.94C197.38 263.298 198.085 264.966 198.927 266.411C199.013 266.565 198.773 266.669 198.687 266.514C197.793 265.035 196.692 263.677 195.764 262.215C194.835 260.754 194.044 259.653 193.305 258.364C191.585 255.612 189.866 252.844 188.267 250.058C186.668 247.273 184.948 244.522 183.315 241.719C181.681 238.916 180.202 236.062 178.569 233.276C178.548 233.233 178.536 233.186 178.536 233.139C178.536 233.091 178.548 233.044 178.569 233.001C178.524 232.942 178.5 232.869 178.5 232.795C178.5 232.72 178.524 232.648 178.569 232.588C183.83 227.653 189.144 222.925 194.302 218.024Z" fill="#263238"/>
<path d="M168.389 269.42C171.828 267.374 185.859 259.361 189.47 257.624C189.47 257.624 189.608 257.624 189.47 257.727C186.341 260.049 172.774 268.371 169.301 270.417C162.453 274.669 155.375 278.538 148.099 282.007C147.962 282.007 147.824 281.886 147.945 281.8C154.53 277.209 161.529 273.409 168.389 269.42Z" fill="#263238"/>
<path d="M226.611 209.255L221.453 220.26L235.897 258.673C235.363 257.693 236.653 239.999 234.538 225.452C232.01 208.068 223.843 171.564 223.843 171.564L218.409 207.673L226.611 209.255Z" fill="#4389F3"/>
<path opacity="0.2" d="M226.611 209.255L221.453 220.26L235.897 258.673C235.363 257.693 236.653 239.999 234.538 225.452C232.01 208.068 223.843 171.564 223.843 171.564L218.409 207.673L226.611 209.255Z" fill="black"/>
<path d="M226.388 174.229C227.127 175.948 237.547 185.698 245.457 183.841C248.036 183.239 245.354 169.036 245.354 169.036V167.936L245.921 152.632L226.611 144.722L223.843 143.725C223.843 143.725 223.963 147.921 224.17 153.148C224.17 153.389 224.17 153.629 224.17 153.887C224.17 154.145 224.17 154.472 224.17 154.747C224.17 155.521 224.17 156.329 224.256 157.12C224.342 157.911 224.256 158.306 224.359 158.943C224.462 159.579 224.359 160.198 224.479 160.834C224.817 165.336 225.454 169.811 226.388 174.229V174.229Z" fill="#FFD099"/>
<path d="M224.221 153.148C226.463 157.006 229.521 160.328 233.18 162.882C236.838 165.436 241.011 167.161 245.405 167.936L245.973 152.632L226.663 144.722L223.894 143.725C223.894 143.725 224.032 147.921 224.221 153.148Z" fill="#263238"/>
<path d="M263.477 127.098C269.065 153.389 253.951 159.768 248.277 160.92C243.118 162.003 225.459 165.064 217.171 139.478C208.883 113.892 219.355 102.973 230.927 99.9296C242.499 96.8861 257.889 100.789 263.477 127.098Z" fill="#FFD099"/>
<path d="M255.258 122.335C254.639 122.369 254.019 122.369 253.401 122.335C252.744 122.416 252.079 122.277 251.509 121.939C251.35 121.799 251.242 121.609 251.202 121.401C251.161 121.193 251.191 120.977 251.286 120.787C251.533 120.443 251.867 120.172 252.254 119.999C252.641 119.827 253.066 119.761 253.487 119.807C254.355 119.759 255.209 120.042 255.877 120.598C256.009 120.736 256.1 120.908 256.14 121.095C256.18 121.283 256.167 121.477 256.103 121.657C256.039 121.837 255.926 121.996 255.776 122.116C255.627 122.235 255.448 122.311 255.258 122.335V122.335Z" fill="#263238"/>
<path d="M237.306 126.496C237.893 126.288 238.467 126.046 239.026 125.774C239.663 125.607 240.226 125.232 240.625 124.708C240.723 124.518 240.754 124.302 240.714 124.093C240.673 123.884 240.563 123.694 240.402 123.555C240.047 123.323 239.636 123.191 239.212 123.173C238.788 123.155 238.368 123.251 237.994 123.452C237.153 123.754 236.463 124.37 236.068 125.172C236.003 125.348 235.989 125.539 236.026 125.723C236.063 125.908 236.151 126.078 236.279 126.215C236.408 126.353 236.572 126.452 236.753 126.501C236.935 126.551 237.126 126.549 237.306 126.496V126.496Z" fill="#263238"/>
<path d="M242.74 132.187C242.74 132.187 242.62 132.29 242.637 132.376C243.084 134.096 243.308 136.262 241.812 137.208C241.812 137.208 241.812 137.329 241.812 137.311C243.772 136.606 243.462 133.769 242.74 132.187Z" fill="#263238"/>
<path d="M240.745 130.657C237.805 131.07 238.837 136.899 241.554 136.52C244.27 136.142 243.204 130.33 240.745 130.657Z" fill="#263238"/>
<path d="M239.645 131.173C239.198 131.585 238.802 132.256 238.201 132.428C237.599 132.6 236.859 132.101 236.292 131.603C236.292 131.603 236.189 131.603 236.292 131.689C236.464 132.806 237.1 133.872 238.321 133.838C239.542 133.804 240.04 132.669 240.144 131.5C240.058 131.276 239.834 131.001 239.645 131.173Z" fill="#263238"/>
<path d="M252.902 129.23C252.902 129.23 253.057 129.23 253.074 129.367C253.315 131.19 253.9 133.236 255.636 133.546V133.649C253.607 133.769 252.851 131.001 252.902 129.23Z" fill="#263238"/>
<path d="M254.192 127.063C257.081 126.358 258.284 132.222 255.619 132.806C252.954 133.391 251.785 127.665 254.192 127.063Z" fill="#263238"/>
<path d="M255.482 127.201C256.015 127.407 256.582 127.871 257.201 127.785C257.82 127.699 258.181 126.977 258.456 126.289C258.456 126.289 258.542 126.289 258.559 126.289C258.835 127.39 258.697 128.611 257.682 129.058C256.668 129.505 255.843 128.645 255.344 127.596C255.189 127.459 255.275 127.115 255.482 127.201Z" fill="#263238"/>
<path d="M252.644 142.229C252.142 143.41 251.342 144.441 250.323 145.221C249.752 145.63 249.065 145.846 248.363 145.84C246.832 145.84 246.471 144.516 246.454 143.33C246.44 142.694 246.504 142.059 246.643 141.438C248.509 142.332 250.611 142.609 252.644 142.229V142.229Z" fill="#263238"/>
<path d="M250.323 145.221C249.752 145.63 249.065 145.846 248.363 145.84C246.832 145.84 246.471 144.516 246.454 143.33C247.218 143.157 248.018 143.251 248.721 143.595C249.425 143.939 249.99 144.512 250.323 145.221Z" fill="#FF9CBD"/>
<path d="M252.541 138.549C252.541 138.549 253.418 141.163 253.659 142.435C253.659 142.556 253.384 142.676 252.954 142.779C251.901 143.183 250.758 143.29 249.649 143.09C248.539 142.89 247.506 142.39 246.661 141.645C246.637 141.622 246.622 141.592 246.618 141.559C246.615 141.526 246.623 141.493 246.642 141.466C246.661 141.439 246.689 141.42 246.72 141.412C246.752 141.403 246.786 141.407 246.815 141.421C248.647 142.234 250.693 142.428 252.644 141.971C252.644 141.593 250.925 137.518 251.183 137.466C252.187 137.372 253.199 137.413 254.192 137.587C252.472 132.067 249.962 126.857 248.38 121.337C248.38 121.148 248.604 121.028 248.689 121.2C251.592 126.682 253.937 132.443 255.688 138.395C255.877 139.117 253.091 138.67 252.541 138.549Z" fill="#263238"/>
<path d="M218.392 137.208C224.496 136.348 223.018 126.754 223.018 126.754C223.018 126.754 229.895 125.034 228.675 113.875C230.366 115.894 232.498 117.497 234.907 118.561C237.316 119.626 239.937 120.122 242.568 120.013C244.597 120.013 237.186 115.869 237.186 115.869C237.186 115.869 246.231 121.888 260.588 116.935C261.603 116.591 257.149 101.34 244.683 97.7459C232.217 94.1521 222.33 98.726 216.208 107.117C216.208 107.117 208.282 112.276 208.539 120.478C208.797 128.68 216.019 137.449 218.392 137.208Z" fill="#263238"/>
<path d="M221.78 138.928C221.78 138.928 214.902 131.31 211.463 133.769C208.024 136.228 213.818 147.852 218.461 148.952C219.047 149.135 219.663 149.197 220.274 149.135C220.884 149.073 221.476 148.887 222.013 148.59C222.55 148.293 223.02 147.89 223.397 147.405C223.774 146.921 224.048 146.365 224.204 145.771L221.78 138.928Z" fill="#FFD099"/>
<path d="M213.165 137.088C213.165 137.088 213.165 137.191 213.165 137.208C216.449 138.085 218.444 140.768 220.043 143.622C219.824 143.332 219.544 143.092 219.224 142.921C218.903 142.749 218.549 142.649 218.186 142.628C217.823 142.607 217.459 142.665 217.121 142.798C216.783 142.931 216.477 143.136 216.226 143.398C216.216 143.415 216.211 143.434 216.211 143.454C216.212 143.473 216.218 143.492 216.228 143.508C216.239 143.524 216.254 143.537 216.272 143.545C216.29 143.553 216.309 143.556 216.329 143.553C216.855 143.312 217.442 143.239 218.011 143.344C218.58 143.449 219.104 143.726 219.51 144.138C220.153 144.845 220.729 145.61 221.229 146.425C221.401 146.7 221.883 146.425 221.745 146.167C221.246 142.126 217.481 136.95 213.165 137.088Z" fill="#263238"/>
<path d="M224.428 171.254C227.545 169.763 230.983 169.066 234.435 169.225C238.287 169.328 246.127 173.988 246.127 173.988C246.127 173.988 255.843 209.513 250.134 209.822C243.05 210.218 223.602 172.716 224.428 171.254Z" fill="#FFD099"/>
</svg>
